<?xml version="1.0" standalone="no"?>
<!DOCTYPE svg PUBLIC "-//W3C//DTD SVG 20010904//EN"
 "http://www.w3.org/TR/2001/REC-SVG-20010904/DTD/svg10.dtd">
<svg version="1.0" xmlns="http://www.w3.org/2000/svg"
 width="736.000000pt" height="736.000000pt" viewBox="0 0 736.000000 736.000000"
 preserveAspectRatio="xMidYMid meet">
<metadata>
Created by potrace 1.14, written by Peter Selinger 2001-2017
</metadata>
<g transform="translate(0.000000,736.000000) scale(0.100000,-0.100000)"
fill="#000000" stroke="none">
<path d="M3690 7231 c0 -4 -10 -19 -23 -32 -13 -13 -37 -42 -53 -64 -16 -22
-34 -44 -40 -50 -5 -5 -23 -28 -39 -50 -16 -22 -37 -49 -46 -60 -31 -35 -112
-138 -159 -200 -25 -33 -47 -62 -50 -65 -4 -3 -33 -39 -65 -80 -33 -41 -62
-77 -65 -80 -3 -3 -54 -67 -113 -142 -60 -76 -114 -139 -120 -139 -19 -2 -82
7 -82 11 0 2 -25 7 -80 14 -27 4 -70 11 -95 16 -25 6 -57 12 -72 15 -15 2 -55
9 -90 15 -35 7 -74 13 -88 15 -14 1 -32 5 -40 8 -8 3 -35 8 -60 11 -25 2 -52
6 -60 9 -8 3 -33 9 -55 12 -39 6 -58 9 -100 18 -11 3 -42 8 -68 11 -27 4 -57
9 -68 12 -10 2 -29 6 -41 9 -13 3 -43 8 -67 11 -25 3 -48 7 -52 10 -4 2 -26 5
-48 6 -23 1 -41 4 -41 8 0 3 -16 7 -37 8 -20 2 -40 5 -44 8 -5 2 -32 7 -61 10
-29 3 -56 8 -60 10 -4 3 -26 7 -50 10 -24 4 -52 10 -63 13 -40 14 -50 8 -51
-32 -1 -20 -4 -40 -7 -43 -3 -3 -1 -19 3 -35 5 -17 5 -31 -1 -35 -5 -3 -7 -10
-3 -15 7 -12 9 -133 2 -145 -3 -5 -2 -18 2 -29 4 -11 4 -29 0 -41 -5 -11 -5
-25 -2 -31 4 -6 6 -148 4 -316 l-3 -306 -37 -12 c-20 -6 -43 -16 -49 -22 -7
-5 -13 -7 -13 -4 0 3 -26 -3 -57 -14 -32 -11 -63 -22 -70 -23 -7 -1 -16 -5
-19 -9 -4 -4 -13 -7 -20 -7 -7 0 -25 -5 -41 -12 -15 -6 -32 -12 -38 -14 -5 -1
-72 -23 -147 -48 -157 -53 -170 -56 -364 -97 -55 -11 -106 -22 -114 -24 -36
-9 -342 -75 -345 -75 -2 0 21 -48 52 -107 31 -60 61 -118 67 -130 6 -13 14
-23 19 -23 4 0 7 -5 7 -10 0 -12 19 -51 75 -155 59 -110 70 -130 75 -135 3 -3
27 -48 53 -100 26 -52 69 -135 96 -185 27 -49 66 -124 87 -165 22 -41 41 -77
44 -80 3 -3 16 -27 29 -55 14 -27 30 -57 37 -65 7 -8 13 -17 13 -20 0 -3 5
-18 11 -35 7 -16 14 -41 16 -54 3 -14 7 -28 10 -33 3 -4 7 -17 10 -28 2 -11 6
-28 8 -38 2 -10 11 -35 20 -55 8 -20 13 -37 11 -37 -2 0 5 -26 16 -57 11 -32
22 -67 24 -77 5 -22 24 -84 32 -106 4 -8 14 -42 24 -75 18 -65 87 -291 95
-315 3 -8 5 -16 5 -17 0 -2 6 -21 14 -43 8 -22 15 -44 16 -48 1 -4 3 -11 5
-17 1 -5 19 -64 39 -130 20 -66 43 -139 51 -163 8 -23 14 -47 14 -52 0 -5 5
-21 12 -37 13 -34 15 -40 23 -77 3 -16 10 -36 14 -45 5 -9 9 -19 10 -23 1 -5
1 -9 2 -10 3 -13 8 -49 13 -101 8 -81 15 -151 21 -207 3 -25 8 -72 11 -105 2
-33 7 -74 9 -92 4 -25 -2 -38 -33 -70 -65 -69 -118 -128 -123 -136 -2 -4 -33
-38 -69 -76 -36 -37 -95 -100 -132 -141 l-67 -75 22 -40 c12 -22 27 -43 32
-47 6 -4 7 -8 2 -8 -6 0 19 -46 33 -60 3 -3 15 -25 27 -50 13 -25 38 -72 56
-105 127 -229 150 -271 173 -315 11 -19 21 -37 24 -40 3 -3 15 -25 28 -50 12
-25 28 -54 35 -65 7 -11 12 -21 13 -22 0 -1 18 -5 40 -8 21 -4 48 -9 59 -12
27 -9 35 -11 70 -18 17 -3 38 -8 47 -11 9 -3 25 -6 35 -8 10 -2 74 -18 143
-34 188 -46 332 -80 360 -86 14 -3 36 -8 50 -11 14 -4 31 -7 38 -7 6 -1 12 -4
12 -7 0 -3 12 -7 28 -8 30 -3 50 -7 72 -16 8 -3 29 -8 45 -11 53 -11 78 -17
160 -38 44 -11 89 -21 100 -23 11 -1 32 -7 46 -13 15 -6 29 -9 32 -6 2 2 15 0
29 -5 14 -5 38 -12 54 -15 16 -3 65 -14 109 -25 44 -11 91 -22 105 -25 14 -2
32 -7 41 -11 12 -4 22 4 37 29 l21 35 -102 89 c-56 50 -112 99 -124 111 -12
12 -27 21 -33 21 -6 0 -8 5 -5 10 3 6 2 10 -3 10 -8 0 -25 15 -139 120 -24 21
-43 37 -43 35 0 -3 -13 8 -28 23 -15 15 -59 54 -96 87 -38 33 -81 71 -96 85
-15 14 -51 45 -80 70 -164 141 -174 154 -234 307 -31 78 -56 146 -56 152 0 6
-4 11 -10 11 -5 0 -9 3 -8 8 4 9 -42 134 -54 149 -7 9 1 17 29 28 21 9 43 18
48 19 6 1 55 17 110 35 55 18 105 34 110 36 6 1 17 5 25 8 43 17 168 59 189
63 14 3 29 8 35 12 10 6 17 8 51 15 8 2 18 6 21 10 4 4 17 7 29 7 11 0 26 5
32 11 16 16 64 13 113 -8 25 -10 64 -25 88 -33 23 -7 42 -16 42 -20 0 -4 6 -7
13 -7 6 0 48 -15 92 -33 44 -18 86 -33 93 -33 6 0 12 -3 12 -7 0 -3 24 -14 53
-24 28 -10 66 -24 82 -31 17 -7 57 -23 90 -35 33 -13 66 -28 73 -33 6 -5 12
-6 12 -3 0 4 10 1 23 -6 12 -6 31 -13 41 -15 11 -2 24 -7 30 -12 10 -7 122
-54 136 -57 5 -1 32 -11 116 -45 l50 -21 200 66 c109 37 208 70 219 75 27 11
116 42 135 46 8 2 49 16 90 30 41 15 82 28 90 30 8 2 29 9 45 15 17 6 37 13
45 15 8 2 29 9 45 16 17 7 35 13 40 14 6 0 21 7 35 15 14 7 26 13 27 12 7 -4
64 12 68 18 6 10 48 4 150 -22 44 -11 89 -22 100 -24 25 -5 59 -13 83 -18 9
-3 64 -17 122 -31 58 -14 122 -30 143 -36 l37 -10 -20 -39 c-11 -22 -18 -40
-14 -40 4 0 1 -6 -5 -13 -6 -8 -8 -17 -4 -20 3 -4 2 -7 -4 -7 -6 0 -14 -12
-19 -27 -4 -16 -8 -30 -9 -33 -1 -3 -9 -23 -19 -45 -10 -22 -19 -44 -20 -50
-1 -5 -10 -28 -20 -50 -10 -22 -19 -47 -21 -55 -2 -8 -4 -16 -5 -17 -2 -2 -3
-6 -5 -10 -13 -48 -52 -102 -133 -186 -53 -55 -115 -119 -137 -142 -124 -130
-449 -468 -503 -523 -34 -35 -62 -66 -62 -68 0 -2 -20 -22 -45 -45 -25 -23
-43 -44 -41 -46 4 -4 79 15 301 76 39 11 71 20 73 20 1 1 3 1 5 2 1 0 9 2 17
4 38 7 298 77 320 85 14 5 36 12 50 14 25 5 169 44 270 72 30 9 62 18 70 20
19 4 241 64 255 68 6 2 17 6 25 9 8 3 29 8 45 11 17 3 73 17 125 31 52 15 104
29 115 31 23 4 55 39 55 60 0 8 5 14 10 14 6 0 10 4 10 9 0 6 15 36 34 68 39
68 101 181 130 238 12 22 23 42 26 45 3 3 12 19 20 35 8 17 17 32 20 35 3 3
18 30 33 60 35 70 49 93 62 102 6 4 6 8 1 8 -5 0 -3 8 5 18 8 9 27 40 41 67
l27 51 -33 34 c-17 19 -56 62 -86 95 -29 33 -92 103 -141 155 -48 52 -105 115
-128 140 -30 33 -39 51 -36 70 2 14 7 59 10 100 3 41 8 86 10 100 2 14 7 59
10 100 6 71 8 90 20 176 3 19 10 44 15 55 6 10 8 19 5 19 -3 0 -1 9 5 21 6 11
13 28 15 37 2 9 18 58 35 107 18 50 34 97 35 105 2 8 4 15 5 15 1 0 3 7 5 15
2 8 79 236 170 505 91 270 167 495 169 500 24 97 69 194 132 290 41 61 91 137
113 170 22 33 45 65 51 72 5 7 10 17 10 23 0 5 5 10 10 10 6 0 10 7 10 15 0 8
5 15 10 15 6 0 10 6 10 14 0 8 3 16 8 18 18 8 114 165 191 312 23 44 46 85 52
93 7 7 8 13 3 13 -5 0 -4 4 1 8 6 4 24 34 40 67 17 33 32 62 35 65 3 3 25 43
49 90 25 47 52 99 62 117 10 18 15 34 11 36 -8 5 -81 20 -102 21 -8 1 -21 5
-28 10 -7 4 -16 5 -19 2 -3 -3 -11 -2 -18 4 -6 5 -30 11 -53 12 -23 2 -42 7
-42 11 0 4 -6 7 -12 5 -7 -1 -36 4 -63 10 -28 7 -61 14 -75 16 -14 2 -32 6
-40 9 -13 5 -111 27 -190 43 -21 4 -118 34 -170 52 -8 3 -17 6 -20 7 -3 0 -56
18 -117 39 -62 20 -115 37 -118 37 -2 0 -25 8 -50 19 -25 11 -47 20 -50 20 -3
0 -6 0 -7 0 -2 0 -32 11 -68 24 -44 15 -64 27 -61 37 1 8 5 28 6 46 2 18 6 41
10 52 3 11 8 35 10 53 7 54 39 234 49 278 3 14 8 43 11 64 3 21 7 48 10 60 7
32 15 78 21 116 2 19 13 82 24 140 11 58 22 119 24 135 2 17 5 30 6 30 1 0 3
12 4 28 3 31 6 30 -54 16 -25 -6 -56 -12 -70 -14 -14 -2 -56 -9 -95 -15 -38
-6 -83 -13 -100 -16 -16 -2 -41 -6 -55 -9 -14 -3 -41 -8 -60 -11 -19 -2 -46
-6 -60 -9 -14 -3 -37 -8 -52 -10 -16 -3 -40 -8 -55 -11 -16 -3 -35 -6 -43 -6
-8 0 -32 -4 -53 -10 -21 -5 -55 -11 -75 -14 -20 -2 -48 -6 -62 -9 -14 -2 -41
-7 -60 -10 -19 -3 -46 -7 -60 -10 -14 -3 -38 -7 -55 -10 -16 -3 -41 -7 -55
-10 -14 -3 -45 -8 -70 -11 -25 -3 -54 -8 -65 -10 -31 -7 -88 -17 -110 -20 -11
-1 -20 -3 -20 -4 0 -1 -11 -3 -25 -5 -14 -1 -43 -6 -65 -10 -22 -4 -51 -8 -65
-10 -14 -3 -36 -6 -50 -9 -14 -3 -45 -8 -70 -11 -24 -4 -48 -8 -52 -11 -9 -6
-25 12 -221 250 -18 21 -39 47 -49 58 -9 10 -31 37 -50 60 -18 23 -38 46 -43
52 -6 6 -30 36 -55 66 -24 30 -60 73 -80 95 -19 22 -46 55 -60 73 -14 18 -46
56 -72 85 -26 28 -48 55 -48 58 0 6 -46 61 -107 128 -18 19 -33 39 -33 43 0 4
-4 8 -10 8 -5 0 -10 -4 -10 -9z"/>
</g>
</svg>
